<svg xmlns="http://www.w3.org/2000/svg" version="1.1" xmlns:xlink="http://www.w3.org/1999/xlink" width="512" height="512" x="0" y="0" viewBox="0 0 512 512" style="enable-background:new 0 0 512 512" xml:space="preserve" class=""><g><path d="M477.75 459.11c-1.02-7.7-4.92-14.28-10.98-18.55l-78.14-55.06c5.98-13.57 8.46-28.5 7.05-43.67-2.18-23.45-13.35-44.64-31.45-59.7V63.08c0-12.89-5.06-25.02-14.26-34.16-9.11-9.06-21.1-14.02-33.85-13.92L82.06 16.47c-26.51 0-48.08 21.57-48.08 48.07v350.74c0 12.89 5.06 25.02 14.26 34.16 9.04 8.98 20.94 13.92 33.55 13.92h.3l234.1-1.47c12.55-.08 24.43-4.95 33.45-13.7 5.99-5.81 10.27-12.92 12.59-20.69l63.86 62.1c4.95 4.81 11.52 7.41 18.67 7.41.53 0 1.06-.01 1.59-.04 9.01-.48 17.93-5.03 23.85-12.16 5.91-7.15 8.74-16.75 7.55-25.7zm-79.9-52.44-17.78 21.43-13.01-12.66c3.07-2.79 5.96-5.8 8.66-9.05 2.69-3.25 5.12-6.65 7.3-10.18zm-14.12-63.73c1.89 20.3-4.24 40.11-17.26 55.8s-31.36 25.36-51.66 27.25c-20.28 1.89-40.11-4.24-55.8-17.26s-25.36-31.36-27.25-51.66c-3.9-41.9 27.02-79.15 68.91-83.05 20.29-1.88 40.11 4.24 55.8 17.26 15.7 13.02 25.37 31.36 27.26 51.66zm-67.61 106.95-234.1 1.47h-.23c-9.42 0-18.32-3.7-25.09-10.43-6.91-6.87-10.72-15.98-10.72-25.64V64.54c0-19.89 16.18-36.07 36.11-36.07L316.2 27h.23c9.41 0 18.32 3.7 25.09 10.43 6.91 6.87 10.72 15.98 10.72 25.64v210.65c-15.81-9.26-34.05-13.37-52.66-11.64-48.48 4.51-84.26 47.62-79.75 96.11 2.18 23.49 13.38 44.72 31.54 59.78 16 13.27 35.7 20.36 56.23 20.36 2.76 0 5.55-.13 8.34-.39 11.84-1.1 23.11-4.5 33.31-9.92-5.62 12.72-18.46 21.77-33.13 21.87zm144.84 27.24c-3.82 4.61-9.52 7.54-15.25 7.84-3.08.16-7.55-.39-11.25-3.99l-45.76-44.5 18.99-22.89 52.17 36.76c4.21 2.97 5.58 7.25 5.99 10.32.76 5.71-1.07 11.86-4.89 16.46zM301.7 284.9c-17.39 1.62-33.11 9.91-44.26 23.35s-16.41 30.42-14.79 47.81 9.91 33.11 23.35 44.26c11.85 9.83 26.44 15.07 41.64 15.07 2.05 0 4.11-.1 6.17-.29 17.39-1.62 33.11-9.91 44.26-23.35s16.4-30.42 14.79-47.81c-3.34-35.89-35.26-62.38-71.16-59.04zm47.14 99.2c-9.11 10.97-21.94 17.75-36.14 19.07s-28.06-2.97-39.04-12.07c-10.97-9.11-17.75-21.94-19.07-36.14s2.97-28.06 12.07-39.04c9.11-10.98 21.94-17.75 36.14-19.07 29.32-2.73 55.38 18.9 58.1 48.21 1.33 14.2-2.95 28.06-12.06 39.04zM94.13 229.18h38.1c3.31 0 6-2.69 6-6v-47.63c0-3.31-2.69-6-6-6h-38.1c-3.31 0-6 2.69-6 6v47.63c0 3.31 2.68 6 6 6zm6-47.63h26.1v35.63h-26.1zm52.06-58.27c-3.31 0-6 2.69-6 6v93.9c0 3.31 2.69 6 6 6h38.1c3.31 0 6-2.69 6-6v-93.9c0-3.31-2.69-6-6-6zm32.1 93.9h-26.1v-81.9h26.1zm25.96-60.78c-3.31 0-6 2.69-6 6v60.78c0 3.31 2.69 6 6 6h38.1c3.31 0 6-2.69 6-6V162.4c0-3.31-2.69-6-6-6zm32.1 60.78h-26.1V168.4h26.1zm19.96-103.32v109.32c0 3.31 2.69 6 6 6h38.1c3.31 0 6-2.69 6-6V113.86c0-3.31-2.69-6-6-6h-38.1c-3.31 0-6 2.69-6 6zm12 6h26.1v97.32h-26.1zm-169.05 22a6 6 0 0 1 .55-8.47l58.97-51.71a5.99 5.99 0 0 1 6.6-.87l50.16 24.66 46.57-36.14-13.75-1.9c-3.28-.45-5.58-3.48-5.12-6.76.45-3.28 3.49-5.58 6.76-5.12l27.86 3.85a5.994 5.994 0 0 1 5.12 6.76L285.15 94c-.42 3-2.99 5.18-5.94 5.18-.27 0-.55-.02-.83-.06a5.995 5.995 0 0 1-5.12-6.77l1.83-13.26-49.14 38.14a6.004 6.004 0 0 1-6.33.65l-49.93-24.54-55.96 49.07a6.007 6.007 0 0 1-8.47-.55zM74.31 244.23c0-3.31 2.69-6 6-6h237.61c3.31 0 6 2.69 6 6s-2.69 6-6 6H80.31c-3.32 0-6-2.69-6-6zm222.9 91.27c0 3.38 5.32 5.84 12.84 8.96 9.02 3.74 20.24 8.4 20.24 20.05 0 9.42-7.02 17.37-16.54 19.76v9.54c0 3.31-2.69 6-6 6s-6-2.69-6-6v-9.54c-9.52-2.4-16.54-10.35-16.54-19.76 0-3.31 2.69-6 6-6s6 2.69 6 6c0 4.69 4.73 8.51 10.54 8.51s10.54-3.82 10.54-8.51c0-3.38-5.32-5.84-12.84-8.96-9.02-3.74-20.24-8.4-20.24-20.05 0-9.42 7.02-17.37 16.54-19.76v-9.54c0-3.31 2.69-6 6-6s6 2.69 6 6v9.54c9.52 2.4 16.54 10.35 16.54 19.76 0 3.31-2.69 6-6 6s-6-2.69-6-6c0-4.69-4.73-8.51-10.54-8.51s-10.54 3.82-10.54 8.51zM74.3 334.27c0-3.31 2.69-6 6-6h116.97c3.31 0 6 2.69 6 6s-2.69 6-6 6H80.3c-3.31 0-6-2.68-6-6zm0 33.98c0-3.31 2.69-6 6-6h117.44c3.31 0 6 2.69 6 6s-2.69 6-6 6H80.3c-3.31 0-6-2.69-6-6zM218 402.23c0 3.31-2.69 6-6 6H80.3c-3.31 0-6-2.69-6-6s2.69-6 6-6H212c3.32 0 6 2.68 6 6zM74.3 300.3c0-3.31 2.69-6 6-6h130.17c3.31 0 6 2.69 6 6s-2.69 6-6 6H80.3c-3.31 0-6-2.69-6-6z" fill="#fab31e" opacity="1" data-original="#000000" class=""></path></g></svg>