<svg xmlns="http://www.w3.org/2000/svg" version="1.1" xmlns:xlink="http://www.w3.org/1999/xlink" width="512" height="512" x="0" y="0" viewBox="0 0 64 64" style="enable-background:new 0 0 512 512" xml:space="preserve" class=""><g><path d="M62 19h-.72l1.69-6.758A1 1 0 0 0 62 11h-7V7a1 1 0 0 0-1-1H18.48l-3.7-4.625A1 1 0 0 0 14 1H2a1 1 0 0 0-1 1v40a1 1 0 0 0 1 1h11.059a8.991 8.991 0 0 0 3.3 6H16a2.987 2.987 0 0 0-2.22 5 2.954 2.954 0 0 0 0 4A2.987 2.987 0 0 0 16 63h12a2.987 2.987 0 0 0 2.22-5 2.954 2.954 0 0 0 0-4A2.987 2.987 0 0 0 28 49h-.355a8.991 8.991 0 0 0 3.3-6H33v19a1 1 0 0 0 1 1h28a1 1 0 0 0 1-1V20a1 1 0 0 0-1-1ZM13.52 3l3.7 4.625A1 1 0 0 0 18 8h35v3H12a1 1 0 0 0-.948.684L3 35.839V3ZM29 56a1 1 0 0 1-1 1H16a1 1 0 0 1 0-2h12a1 1 0 0 1 1 1Zm-1 5H16a1 1 0 0 1 0-2h12a1 1 0 0 1 0 2Zm0-10a1 1 0 0 1 0 2H16a1 1 0 0 1 0-2Zm-6-2a7 7 0 1 1 7-7 7.009 7.009 0 0 1-7 7Zm11-29v21h-2.059a9 9 0 0 0-17.882 0H3.387l9.334-28h48l-1.5 6H34a1 1 0 0 0-1 1Zm28 41H35V21h26Z" fill="#fab31e" opacity="1" data-original="#000000" class=""></path><path d="M38 31h20a1 1 0 0 0 1-1v-6a1 1 0 0 0-1-1H38a1 1 0 0 0-1 1v6a1 1 0 0 0 1 1Zm1-6h18v4H39ZM38 39h4a1 1 0 0 0 1-1v-4a1 1 0 0 0-1-1h-4a1 1 0 0 0-1 1v4a1 1 0 0 0 1 1Zm1-4h2v2h-2ZM50 33h-4a1 1 0 0 0-1 1v4a1 1 0 0 0 1 1h4a1 1 0 0 0 1-1v-4a1 1 0 0 0-1-1Zm-1 4h-2v-2h2ZM58 33h-4a1 1 0 0 0-1 1v4a1 1 0 0 0 1 1h4a1 1 0 0 0 1-1v-4a1 1 0 0 0-1-1Zm-1 4h-2v-2h2ZM38 47h4a1 1 0 0 0 1-1v-4a1 1 0 0 0-1-1h-4a1 1 0 0 0-1 1v4a1 1 0 0 0 1 1Zm1-4h2v2h-2ZM50 41h-4a1 1 0 0 0-1 1v4a1 1 0 0 0 1 1h4a1 1 0 0 0 1-1v-4a1 1 0 0 0-1-1Zm-1 4h-2v-2h2ZM58 41h-4a1 1 0 0 0-1 1v4a1 1 0 0 0 1 1h4a1 1 0 0 0 1-1v-4a1 1 0 0 0-1-1Zm-1 4h-2v-2h2ZM38 55h4a1 1 0 0 0 1-1v-4a1 1 0 0 0-1-1h-4a1 1 0 0 0-1 1v4a1 1 0 0 0 1 1Zm1-4h2v2h-2ZM50 49h-4a1 1 0 0 0-1 1v8a1 1 0 0 0 1 1h4a1 1 0 0 0 1-1v-8a1 1 0 0 0-1-1Zm-1 8h-2v-6h2ZM58 49h-4a1 1 0 0 0-1 1v8a1 1 0 0 0 1 1h4a1 1 0 0 0 1-1v-8a1 1 0 0 0-1-1Zm-1 8h-2v-6h2ZM22 39a1 1 0 0 1 1 1h2a3 3 0 0 0-2-2.816V36h-2v1.184A2.993 2.993 0 0 0 22 43a1 1 0 1 1-1 1h-2a3 3 0 0 0 2 2.816V48h2v-1.184A2.993 2.993 0 0 0 22 41a1 1 0 0 1 0-2Z" fill="#fab31e" opacity="1" data-original="#000000" class=""></path></g></svg>