<svg width="512" height="512" viewBox="0 0 512 512" fill="none" xmlns="http://www.w3.org/2000/svg">
<path d="M244.603 297.936C251.183 291.355 260.817 291.355 267.397 297.936L342.064 372.603C348.645 379.183 348.645 388.817 342.064 395.397L267.397 470.064C265.559 471.902 263.92 473.083 262.236 473.831C260.574 474.57 258.617 475 256 475C253.383 475 251.426 474.57 249.764 473.831C248.08 473.083 246.441 471.902 244.603 470.064L169.936 395.397C163.355 388.817 163.355 379.183 169.936 372.603L244.603 297.936ZM204.129 384L256 435.871L307.871 384L256 332.129L204.129 384ZM116.603 169.936C123.183 163.355 132.817 163.355 139.397 169.936L214.064 244.603C220.645 251.183 220.645 260.817 214.064 267.397L139.397 342.064C137.559 343.902 135.92 345.083 134.236 345.831C132.574 346.57 130.617 347 128 347C125.383 347 123.426 346.57 121.764 345.831C120.08 345.083 118.441 343.902 116.603 342.064L41.9355 267.397C35.3551 260.817 35.355 251.183 41.9355 244.603L116.603 169.936ZM372.603 169.936C379.183 163.355 388.817 163.355 395.397 169.936L470.064 244.603C476.645 251.183 476.645 260.817 470.064 267.397L395.397 342.064C393.559 343.902 391.92 345.083 390.236 345.831C388.574 346.57 386.617 347 384 347C381.383 347 379.426 346.57 377.764 345.831C376.08 345.083 374.441 343.902 372.603 342.064L297.936 267.397C291.355 260.817 291.355 251.183 297.936 244.603L372.603 169.936ZM76.1289 256L128 307.871L179.871 256L128 204.129L76.1289 256ZM332.129 256L384 307.871L435.871 256L384 204.129L332.129 256ZM244.603 41.9354C251.183 35.3549 260.817 35.3549 267.397 41.9354L342.064 116.603C348.645 123.183 348.645 132.817 342.064 139.397L267.397 214.064C265.559 215.902 263.92 217.083 262.236 217.831C260.574 218.57 258.617 219 256 219C253.383 219 251.426 218.57 249.764 217.831C248.08 217.083 246.441 215.902 244.603 214.064L169.936 139.397C163.355 132.817 163.355 123.183 169.936 116.603L244.603 41.9354ZM204.129 128L256 179.871L307.871 128L256 76.1288L204.129 128Z" fill="#FAB31E" stroke="white" stroke-width="10"/>
</svg>
